PathFileType	4	(X/Y/Z)	C:/Users/beibeiliu/ov580/test_trc/capture2\sequence.12_training_dense_left.trc
DataRate	CameraRate	NumFrames	NumMarkers	Units	OrigDataRate	OrigDataStartFrame	OrigNumFrames
120	120	24	19	mm	120	139	369
Frame#	Time	ThumbCMC			ThumbMCP			ThumbIP			ThumbTip			IndexMCP			IndexPIP			IndexTip			MiddleMCP			MiddlePIP			MiddleTip			RingMCP			RingPIP			RingTip			PinkyMCP			PinkyPIP			PinkyTip			BackHand1			BackHand2			BackHand3	
		X0	Y0	Z0	X1	Y1	Z1	X2	Y2	Z2	X3	Y3	Z3	X4	Y4	Z4	X5	Y5	Z5	X6	Y6	Z6	X7	Y7	Z7	X8	Y8	Z8	X9	Y9	Z9	X10	Y10	Z10	X11	Y11	Z11	X12	Y12	Z12	X13	Y13	Z13	X14	Y14	Z14	X15	Y15	Z15	X16	Y16	Z16	X17	Y17	Z17	X18	Y18	Z18	
138	1.15	-72.2334	67.8036	36.319	-54.1806	73.4953	8.44016	-35.7661	90.3859	-12.0248	-30.9686	103.788	-29.2573	-58.2349	134.83	10.934	-42.4394	135.196	-16.6238	-32.0768	118.696	-39.5521	-86.6001	148.551	6.78501	-75.5774	167.984	-8.49441	-69.9294	188.092	-23.7108	-107.025	138.88	-1.17076	-102.52	160.648	-15.6155	-102.084	181.374	-29.9867	-121.272	127.741	-14.0548	-127.289	141.541	-29.8288	-133.278	157.642	-35.0898	-123.48	105.551	24.6728	-131.22	75.8482	40.289	-98.6024	94.81	49.9443	
139	1.15833	-67.9827	66.9377	35.806	-51.0211	73.2556	7.46316	-38.7247	88.4427	-11.5751	-34.3124	101.495	-26.9109	-54.6077	131.763	11.7669	-38.7935	131.571	-15.6266	-35.5528	118.701	-38.5398	-86.1461	147.96	6.25172	-76.4921	162.969	-5.45913	-67.1423	184.692	-20.8101	-105.334	139.728	-2.12926	-102.454	162.016	-16.3026	-96.7871	183.364	-26.6213	-122.891	121.573	-11.2471	-126.604	137.86	-26.7468	-134.69	159.338	-37.0016	-121.208	98.7856	27.5831	-130.758	79.5345	39.1489	-100.76	89.3328	49.5966	
140	1.16667	-69.9613	65.8543	35.2972	-51.5	69.1562	8.1266	-37.3601	84.7938	-11.3466	-31.5451	101.802	-30.4254	-57.2629	130.186	9.01384	-41.0651	130.354	-18.2923	-36.7494	116.364	-41.1778	-83.4203	142.281	8.9154	-76.1207	162.618	-6.87726	-65.4731	185.836	-22.7817	-103.571	138.465	-0.00241841	-99.0199	162.007	-14.5461	-94.29	182.303	-25.524	-123.024	123.098	-12.177	-126.195	138.54	-25.9638	-130.407	157.735	-32.8821	-120.318	98.7197	26.6366	-130.25	73.1997	41.1556	-96.9256	91.0326	51.566	
141	1.175	-69.1994	62.2552	34.8994	-54.2024	68.6987	6.2372	-35.7142	81.0871	-11.1881	-34.1232	96.4671	-28.4329	-55.8956	126.446	11.3909	-41.8615	129.118	-14.3892	-33.2173	112.641	-41.6871	-85.4266	141.051	7.96071	-71.2802	163.923	-7.4112	-64.934	183.095	-21.3455	-106.322	139.344	-3.18227	-102.278	157.662	-15.8177	-98.5365	178.154	-27.1223	-125.649	124.897	-13.5452	-126.995	136.206	-24.688	-133.954	160.716	-32.3757	-119.64	101.031	24.1211	-131.262	77.1282	38.8075	-99.5263	87.0905	47.6375	
142	1.18333	-69.4796	57.3056	33.992	-54.5837	65.6332	4.3247	-38.6552	79.0798	-14.8143	-36.0214	95.2469	-32.6195	-57.1036	125.241	9.86249	-44.0019	127.247	-18.8989	-38.2278	113.033	-42.536	-81.8575	140.205	6.02338	-75.6915	159.453	-9.594	-67.83	182.443	-27.1609	-104.36	134.669	-1.57449	-103.121	155.437	-16.6821	-93.7981	180.687	-27.2857	-126.951	122.501	-15.1759	-125.357	136.282	-25.6471	-136.724	155.096	-33.3064	-120.072	97.5139	24.9235	-133.432	75.7616	37.2522	-101.433	84.627	47.1388	
143	1.19167	-70.8115	57.6056	31.6408	-57.5152	64.049	1.39927	-40.7743	75.6808	-16.7517	-37.2532	92.2274	-35.4752	-57.6592	121.963	5.83332	-44.1104	124.574	-20.5579	-37.7638	108.503	-45.2979	-85.6203	139.242	0.982345	-76.4475	157.927	-14.7035	-65.7043	179.154	-28.8076	-106.894	131.441	-4.80991	-103.963	155.318	-21.0055	-98.853	172.889	-30.303	-127.269	115.245	-15.5856	-127.135	133.508	-28.2901	-138.168	155.258	-38.1443	-119.733	97.5524	24.1137	-134.29	72.3527	35.4757	-101.778	82.245	43.58	
144	1.2	-72.1681	54.4751	28.7488	-54.2469	61.358	-0.890226	-40.725	73.4373	-20.5419	-33.9245	89.2424	-40.3666	-58.439	119.522	2.55314	-41.609	118.671	-24.107	-35.612	101.483	-49.8707	-86.2739	134.349	-0.974185	-77.2808	151.865	-16.4322	-64.7783	174.914	-33.2134	-104.983	132.468	-10.1216	-103.673	147.774	-22.3428	-100.267	173.025	-37.1669	-124.144	113.516	-17.7068	-129.705	131.724	-33.6042	-138.16	147.969	-39.9888	-120.105	93.7829	21.2965	-133.75	70.1184	35.0659	-98.8778	82.5753	41.3766	
145	1.20833	-69.2976	54.8528	25.9209	-55.7428	57.9315	-3.34633	-41.431	70.8211	-24.7715	-36.2074	84.2491	-43.2656	-56.9782	116.896	-4.37364	-44.1436	116.162	-27.5931	-37.7865	100.895	-50.867	-87.2921	130.028	-5.13653	-78.7063	148.288	-21.5483	-65.9147	172.376	-38.2311	-105.237	124.453	-11.2399	-104.444	145.43	-28.2473	-98.9706	168.237	-41.8681	-129.453	113.681	-22.279	-131.951	126.031	-36.005	-140.161	145.429	-45.023	-122.944	89.2663	16.7563	-135.248	67.875	32.9525	-99.409	77.8865	40.6213	
146	1.21667	-75.2306	51.9833	23.3389	-59.781	55.0516	-6.39672	-40.5325	62.0796	-24.9827	-39.8864	78.1994	-45.2798	-60.3702	114.154	-7.78486	-44.0076	112.414	-29.1714	-38.1801	93.2465	-58.0326	-85.6037	127.251	-6.74864	-78.6294	144.801	-25.9142	-68.5541	164.626	-42.6732	-106.574	124.711	-16.3133	-104.357	144.683	-32.6897	-101.911	160.245	-44.5425	-129.093	108.082	-25.4519	-130.242	123.242	-37.3638	-138.199	144.251	-46.9308	-123.012	85.9967	14.7443	-134.667	66.5941	30.5765	-103.395	77.7042	38.7748	
147	1.225	-73.8772	50.7317	20.8104	-57.2225	50.1247	-7.78066	-46.3885	62.2215	-28.635	-36.3002	73.8842	-48.9252	-59.3375	110.969	-8.3125	-46.059	109.305	-34.6513	-41.0038	92.1501	-58.393	-88.6622	125.059	-13.8128	-79.1616	140.735	-28.8917	-70.1654	159.413	-46.5763	-110.092	119.016	-20.1704	-103.742	139.305	-35.2432	-103.124	160.142	-50.5371	-132.073	105.086	-27.7281	-131.456	122.34	-42.5868	-140.616	141.051	-52.1973	-125.246	86.3633	10.1825	-133.907	60.8351	31.4335	-99.3893	73.8598	36.9484	
148	1.23333	-72.8566	47.264	22.1657	-58.0538	50.0775	-9.95741	-45.692	58.7923	-29.9654	-36.1448	68.8426	-51.3193	-63.2991	108.676	-11.9502	-50.3124	107.153	-39.4313	-45.9672	87.084	-64.3207	-86.9387	121.92	-13.9737	-78.6417	139.182	-32.9315	-73.5054	158.341	-53.1683	-111.721	117.502	-23.9077	-106.031	135.794	-37.924	-100.105	157.361	-52.8375	-130.684	101.903	-29.2955	-132.115	119.337	-44.1849	-141.929	138.112	-55.596	-124.854	84.3162	8.76112	-132.853	59.6227	32.4883	-101.098	74.5283	34.2725	
149	1.24167	-75.0353	47.7856	20.6385	-56.8699	45.3557	-8.56874	-42.8073	58.0194	-32.8643	-38.2262	70.4773	-53.9348	-61.7983	108.318	-18.0608	-52.6074	105.738	-41.7634	-44.863	81.9694	-65.0829	-87.8582	119.243	-15.3295	-82.3752	137.288	-34.551	-71.2257	159.219	-55.8737	-108.95	116.236	-23.0549	-107.982	135.278	-40.7144	-106.488	152.395	-54.8929	-130.37	98.5034	-29.5446	-135.315	113.09	-44.5175	-142.965	134.033	-57.8204	-126.867	83.3537	8.69067	-135.916	59.7335	28.2624	-99.4252	74.1011	35.0713	
150	1.25	-74.9705	51.0496	19.409	-58.1153	49.8807	-11.3095	-44.3087	56.3364	-29.6403	-37.2342	68.0441	-51.4064	-64.8576	107.879	-16.1527	-48.0349	104.031	-43.317	-48.6577	84.1064	-65.9636	-90.9572	122.091	-19.3962	-83.1091	139.681	-39.7469	-74.8641	155.298	-54.774	-108.256	118.781	-23.2626	-108.58	135.7	-41.0598	-105.521	154.031	-56.3943	-134.164	100.384	-29.989	-135.181	115.738	-46.4502	-145.115	135.74	-56.8676	-125.512	80.9478	11.7192	-133.625	60.8203	28.6432	-100.528	75.4838	35.259	
151	1.25833	-70.3758	52.7145	20.9394	-61.032	53.2106	-9.31842	-42.9862	62.0602	-31.6747	-42.2587	73.3065	-51.7671	-65.0555	110.186	-14.2933	-50.6807	107.075	-41.6838	-48.1268	85.4473	-64.8408	-92.6014	121.809	-17.0422	-84.5201	141.447	-36.2731	-75.2472	159.896	-55.9907	-111.577	120.968	-23.8029	-108.723	137.901	-40.0893	-107.202	154.573	-53.9031	-131.018	103.838	-29.4348	-136.624	116.597	-45.051	-144.916	133.095	-54.8557	-127.925	86.78	10.1088	-135.539	63.7412	28.8885	-102.776	79.5521	31.2825	
152	1.26667	-71.4012	54.5453	22.0288	-59.2745	51.3052	-5.71827	-43.3633	61.4488	-27.5482	-39.9405	73.9391	-48.6343	-62.1618	112.568	-14.051	-47.8245	108.858	-39.9514	-46.1823	91.2455	-61.9754	-91.9393	126.192	-15.4435	-82.7156	143.891	-32.7692	-77.2494	160.904	-53.3564	-110.798	120.104	-19.8823	-110.047	138.038	-36.8211	-107.294	160.263	-54.8529	-134.592	103.598	-28.4582	-133.791	119.896	-43.2157	-142.886	137.152	-54.4548	-126.481	84.9866	12.9137	-132.102	65.8698	33.1868	-102.515	78.9094	35.0278	
153	1.275	-73.1579	55.5339	23.0484	-55.8894	54.05	-5.50003	-46.5958	65.9877	-27.5651	-40.8551	75.3856	-46.8096	-66.7754	114.096	-11.6086	-47.8293	111.256	-40.6474	-47.5101	91.3031	-63.0108	-88.3943	130.759	-13.3651	-84.1716	145.934	-31.8855	-73.7109	163.553	-50.817	-114.271	120.575	-19.1859	-110.051	142.743	-36.1418	-105.497	159.193	-49.5385	-130.124	106.076	-26.2068	-136.561	121.97	-43.7017	-144.393	138.18	-52.0979	-126.489	89.4941	11.4278	-134.269	65.3697	34.0373	-102.375	79.6314	37.9264	
154	1.28333	-72.5696	56.6677	23.1268	-54.0115	56.3133	-7.05901	-41.8004	68.1512	-30.2593	-43.5966	80.0254	-48.499	-61.1567	117.28	-13.0911	-51.9244	113.269	-40.0938	-47.8527	95.3688	-60.6794	-91.6722	129.617	-13.5322	-81.7959	147.002	-30.3508	-73.4002	166.339	-51.6061	-109.076	121.619	-16.858	-110.027	143.465	-37.5844	-106.499	161.722	-50.8602	-132.373	105.13	-25.6598	-133.554	123.742	-41.0382	-143.864	136.805	-51.4282	-123.807	88.6947	15.2507	-133.15	64.6859	34.25	-98.4758	81.543	36.1644	
155	1.29167	-71.6622	55.0842	24.3781	-58.873	59.0321	-8.79931	-43.3714	67.1186	-29.7516	-38.5249	81.3214	-51.7908	-61.1273	116.042	-10.1982	-46.9653	114.017	-39.5486	-44.8093	94.0936	-61.7744	-89.9241	130.136	-13.2081	-79.3718	148.923	-34.4688	-75.2867	164.403	-52.8282	-108.407	123.458	-19.0103	-110.472	140.945	-37.1391	-105.205	161.097	-52.7808	-130.127	109.299	-28.22	-135.163	121.003	-43.7025	-144.251	137.389	-51.8174	-122.93	90.1046	15.6449	-131.391	66.5819	36.231	-102.203	81.1037	37.6716	
156	1.3	-69.5083	57.4644	20.793	-57.6681	57.8065	-8.67909	-41.0046	66.7178	-31.868	-34.8686	75.3659	-51.8829	-64.1886	117.678	-17.3739	-50.9346	114.227	-42.5375	-46.5655	92.6882	-62.5027	-91.1483	131.439	-19.1638	-82.8186	146.069	-36.9836	-76.5243	163.861	-58.527	-112.236	124.339	-25.7306	-105.514	141.033	-41.3693	-105.093	159.475	-58.5199	-127.553	104.923	-28.8146	-131.231	118.182	-45.0912	-145.254	134.132	-55.1963	-123.189	89.7563	10.9401	-129.023	67.6201	31.6126	-100.614	83.6345	31.9102	
157	1.30833	-67.3082	54.5616	21.7927	-56.1396	52.3567	-8.6953	-40.5102	62.6456	-34.0469	-38.4484	73.4677	-55.1335	-60.3879	115.97	-16.7688	-49.202	112.362	-43.7091	-44.3045	87.2088	-64.1436	-91.7888	126.454	-21.044	-80.2126	144.094	-41.3579	-74.9121	161.24	-66.0948	-112.201	120.057	-30.3181	-105.807	136.473	-46.9732	-104.601	155.716	-65.7682	-129.889	104.337	-34.6065	-131.057	115.171	-49.4971	-138.96	132.68	-61.2991	-125.167	89.5586	6.77617	-131.446	67.1473	28.162	-96.633	81.1487	32.8407	
158	1.31667	-68.1049	55.1825	16.49	-52.2577	51.6155	-13.7263	-43.481	57.7416	-35.1881	-37.3189	66.2428	-57.0804	-60.9673	114.348	-24.0867	-48.4179	107.451	-50.669	-47.764	81.6834	-66.9492	-86.7339	127.369	-27.726	-80.6809	138.665	-45.1037	-75.1572	153.226	-69.897	-109.955	120.348	-35.7194	-104.679	133.428	-51.5037	-105.292	148.271	-69.3044	-130.532	101.505	-39.2026	-133.812	108.391	-54.3427	-142.606	127.256	-67.9505	-122.55	84.9018	6.4497	-130.992	66.3869	26.8816	-95.6775	82.1209	29.1978	
159	1.325	-66.1478	51.4541	16.4538	-50.7365	48.5118	-16.3049	-40.2965	54.8842	-40.6744	-37.0799	61.1676	-62.6246	-57.7169	108.627	-25.8501	-45.9457	99.6652	-57.8482	-50.8349	73.9534	-68.0121	-88.3785	120.457	-32.0996	-81.1445	134.349	-56.2459	-72.5681	147.093	-79.8633	-109.389	113.457	-39.3014	-102.347	128.778	-57.299	-100.827	143.418	-77.6479	-127.17	97.8493	-41.7967	-129.186	105.632	-59.397	-138.578	121.025	-68.656	-122.221	85.6895	4.64596	-128.62	68.9872	25.1216	-95.7364	82.3135	23.925	
160	1.33333	-67.035	50.5486	15.6574	-51.937	44.8201	-14.8197	-39.1624	47.6281	-40.9277	-36.9089	55.2683	-67.1683	-59.2354	105.774	-35.9858	-47.0557	94.5547	-62.079	-50.8382	60.5798	-68.5924	-83.6017	116.855	-41.0577	-77.3088	125.97	-64.8413	-71.7475	137.089	-92.856	-106.345	107.803	-42.4121	-105.264	123.034	-68.448	-101.667	133.208	-86.0795	-127.958	90.3031	-45.9092	-132.382	100.137	-67.4338	-138.55	116.491	-78.2587	-115.828	88.133	-0.372023	-122.315	68.9063	24.4382	-91.0776	82.033	23.9297	
161	1.34167	-65.7822	50.9596	14.3122	-49.0305	39.648	-15.3078	-40.8227	42.4092	-42.1687	-37.8992	46.7587	-66.9716	-56.228	98.6516	-39.6552	-46.4102	87.0648	-66.4896	-54.5804	51.805	-68.927	-85.0848	107.563	-45.9985	-79.3902	115.719	-73.4452	-72.8058	122.341	-100.446	-107.217	103.362	-51.4831	-101.61	111.437	-72.9738	-101.64	122.353	-98.2396	-127.243	84.1505	-48.384	-128.519	89.7511	-68.5914	-141.451	101.876	-82.5425	-116.296	85.88	-4.91049	-125.167	71.2369	19.6735	-92.6628	82.9294	16.7482	
